<?xml version="1.0" encoding="utf-8"?>
<!-- Generator: Adobe Illustrator 17.0.2, SVG Export Plug-In . SVG Version: 6.00 Build 0)  -->
<!DOCTYPE svg PUBLIC "-//W3C//DTD SVG 1.1//EN" "http://www.w3.org/Graphics/SVG/1.1/DTD/svg11.dtd">
<svg version="1.1" id="Layer_1" xmlns="http://www.w3.org/2000/svg" xmlns:xlink="http://www.w3.org/1999/xlink" x="0px" y="0px"
	 width="90.167px" height="90.5px" viewBox="0 0 90.167 90.5" enable-background="new 0 0 90.167 90.5" xml:space="preserve">
<g>
	<line stroke="#FA4D4B" stroke-width="2" stroke-miterlimit="10" x1="3" y1="2" x2="3" y2="55.667"/>
	<line fill="none" stroke="#00B9E7" stroke-width="2" stroke-miterlimit="10" x1="7" y1="2" x2="7" y2="55.667"/>
	<line fill="none" stroke="#71B33F" stroke-width="2" stroke-miterlimit="10" x1="11" y1="2" x2="11" y2="55.667"/>
	<line fill="none" stroke="#EB068B" stroke-width="2" stroke-miterlimit="10" x1="15" y1="2" x2="15" y2="55.667"/>
	<line fill="none" stroke="#3EAF4A" stroke-width="2" stroke-miterlimit="10" x1="19" y1="2" x2="19" y2="55.667"/>
	<line fill="none" stroke="#F6B31A" stroke-width="2" stroke-miterlimit="10" x1="27" y1="2" x2="27" y2="55.667"/>
	<line fill="none" stroke="#00B9E7" stroke-width="2" stroke-miterlimit="10" x1="31" y1="2" x2="31" y2="55.667"/>
	<line stroke="#FA4D4B" stroke-width="2" stroke-miterlimit="10" x1="23" y1="2" x2="23" y2="55.667"/>
</g>
<path stroke="#FA4D4B" stroke-width="2" stroke-miterlimit="10" d="M87,24.5"/>
<path stroke="#FA4D4B" stroke-width="2" stroke-miterlimit="10" d="M32.333,24.5"/>
<path stroke="#FA4D4B" stroke-width="2" stroke-miterlimit="10" d="M24.833,6"/>
<path stroke="#FA4D4B" stroke-width="2" stroke-miterlimit="10" d="M24.833,59.667"/>
<path stroke="#FA4D4B" stroke-width="2" stroke-miterlimit="10" d="M4.5,65.833"/>
<path stroke="#FA4D4B" stroke-width="2" stroke-miterlimit="10" d="M66.667,30.667"/>
<g>
	<line stroke="#FA4D4B" stroke-width="2" stroke-miterlimit="10" x1="35.042" y1="31" x2="88.708" y2="31"/>
	<line fill="none" stroke="#00B9E7" stroke-width="2" stroke-miterlimit="10" x1="35.042" y1="27" x2="88.708" y2="27"/>
	<line fill="none" stroke="#71B33F" stroke-width="2" stroke-miterlimit="10" x1="35.042" y1="23" x2="88.708" y2="23"/>
	<line fill="none" stroke="#EB068B" stroke-width="2" stroke-miterlimit="10" x1="35.042" y1="19" x2="88.708" y2="19"/>
	<line fill="none" stroke="#3EAF4A" stroke-width="2" stroke-miterlimit="10" x1="35.042" y1="15" x2="88.708" y2="15"/>
	<line fill="none" stroke="#F6B31A" stroke-width="2" stroke-miterlimit="10" x1="35.042" y1="7" x2="88.708" y2="7"/>
	<line fill="none" stroke="#00B9E7" stroke-width="2" stroke-miterlimit="10" x1="35.042" y1="3" x2="88.708" y2="3"/>
	<line stroke="#FA4D4B" stroke-width="2" stroke-miterlimit="10" x1="35.042" y1="11" x2="88.708" y2="11"/>
</g>
<g>
	<line stroke="#FA4D4B" stroke-width="2" stroke-miterlimit="10" x1="59.708" y1="35" x2="59.708" y2="88.667"/>
	<line fill="none" stroke="#00B9E7" stroke-width="2" stroke-miterlimit="10" x1="63.708" y1="35" x2="63.708" y2="88.667"/>
	<line fill="none" stroke="#71B33F" stroke-width="2" stroke-miterlimit="10" x1="67.708" y1="35" x2="67.708" y2="88.667"/>
	<line fill="none" stroke="#EB068B" stroke-width="2" stroke-miterlimit="10" x1="71.708" y1="35" x2="71.708" y2="88.667"/>
	<line fill="none" stroke="#3EAF4A" stroke-width="2" stroke-miterlimit="10" x1="75.708" y1="35" x2="75.708" y2="88.667"/>
	<line fill="none" stroke="#F6B31A" stroke-width="2" stroke-miterlimit="10" x1="83.708" y1="35" x2="83.708" y2="88.667"/>
	<line fill="none" stroke="#00B9E7" stroke-width="2" stroke-miterlimit="10" x1="87.708" y1="35" x2="87.708" y2="88.667"/>
	<line stroke="#FA4D4B" stroke-width="2" stroke-miterlimit="10" x1="79.708" y1="35" x2="79.708" y2="88.667"/>
</g>
<g>
	<line stroke="#FA4D4B" stroke-width="2" stroke-miterlimit="10" x1="2.042" y1="87.667" x2="55.708" y2="87.667"/>
	<line fill="none" stroke="#00B9E7" stroke-width="2" stroke-miterlimit="10" x1="2.042" y1="83.667" x2="55.708" y2="83.667"/>
	<line fill="none" stroke="#71B33F" stroke-width="2" stroke-miterlimit="10" x1="2.042" y1="79.667" x2="55.708" y2="79.667"/>
	<line fill="none" stroke="#EB068B" stroke-width="2" stroke-miterlimit="10" x1="2.042" y1="75.667" x2="55.708" y2="75.667"/>
	<line fill="none" stroke="#3EAF4A" stroke-width="2" stroke-miterlimit="10" x1="2.042" y1="71.667" x2="55.708" y2="71.667"/>
	<line fill="none" stroke="#F6B31A" stroke-width="2" stroke-miterlimit="10" x1="2.042" y1="63.667" x2="55.708" y2="63.667"/>
	<line fill="none" stroke="#00B9E7" stroke-width="2" stroke-miterlimit="10" x1="2.042" y1="59.667" x2="55.708" y2="59.667"/>
	<line stroke="#FA4D4B" stroke-width="2" stroke-miterlimit="10" x1="2.042" y1="67.667" x2="55.708" y2="67.667"/>
</g>
<g>
</g>
<g>
</g>
<g>
</g>
<g>
</g>
<g>
</g>
<g>
</g>
<g>
</g>
<g>
</g>
<g>
</g>
<g>
</g>
<g>
</g>
<g>
</g>
<g>
</g>
<g>
</g>
<g>
</g>
</svg>
