<?xml version="1.0" encoding="utf-8"?>
<!-- Generator: Adobe Illustrator 17.0.0, SVG Export Plug-In . SVG Version: 6.00 Build 0)  -->
<!DOCTYPE svg PUBLIC "-//W3C//DTD SVG 1.1//EN" "http://www.w3.org/Graphics/SVG/1.1/DTD/svg11.dtd">
<svg version="1.1" id="Layer_1" xmlns="http://www.w3.org/2000/svg" xmlns:xlink="http://www.w3.org/1999/xlink" x="0px" y="0px"
	 width="237.415px" height="237.352px" viewBox="0 0 237.415 237.352" enable-background="new 0 0 237.415 237.352"
	 xml:space="preserve">
<circle fill="#FFFFFF" cx="118.713" cy="118.606" r="118.746"/>
<g>
	<line fill="none" stroke="#B3282E" stroke-width="3.5" x1="42.422" y1="40.312" x2="42.422" y2="137.269"/>
	<line fill="none" stroke="#14A9E7" stroke-width="3.5" x1="49.902" y1="40.312" x2="49.902" y2="137.269"/>
	<line fill="none" stroke="#6EAB51" stroke-width="3.5" x1="57.38" y1="40.312" x2="57.38" y2="137.269"/>
	<line fill="none" stroke="#C71186" stroke-width="3.5" x1="64.86" y1="40.312" x2="64.86" y2="137.269"/>
	<line fill="none" stroke="#6EAB51" stroke-width="3.5" x1="72.338" y1="40.312" x2="72.338" y2="137.269"/>
	<line fill="none" stroke="#B3282E" stroke-width="3.5" x1="79.818" y1="40.312" x2="79.818" y2="137.269"/>
	<line fill="none" stroke="#E4AF32" stroke-width="3.5" x1="87.296" y1="40.312" x2="87.296" y2="137.269"/>
	<line fill="none" stroke="#55B8E4" stroke-width="3.5" x1="94.775" y1="40.312" x2="94.775" y2="137.269"/>
</g>
<g>
	<line fill="none" stroke="#B3282E" stroke-width="3.5" x1="142.423" y1="100.04" x2="142.423" y2="196.996"/>
	<line fill="none" stroke="#14A9E7" stroke-width="3.5" x1="149.902" y1="100.04" x2="149.902" y2="196.996"/>
	<line fill="none" stroke="#6EAB51" stroke-width="3.5" x1="157.381" y1="100.04" x2="157.381" y2="196.996"/>
	<line fill="none" stroke="#C71186" stroke-width="3.5" x1="164.86" y1="100.04" x2="164.86" y2="196.996"/>
	<line fill="none" stroke="#6EAB51" stroke-width="3.5" x1="172.339" y1="100.04" x2="172.339" y2="196.996"/>
	<line fill="none" stroke="#B3282E" stroke-width="3.5" x1="179.819" y1="100.04" x2="179.819" y2="196.996"/>
	<line fill="none" stroke="#E4AF32" stroke-width="3.5" x1="187.297" y1="100.04" x2="187.297" y2="196.996"/>
	<line fill="none" stroke="#55B8E4" stroke-width="3.5" x1="194.775" y1="100.04" x2="194.775" y2="196.996"/>
</g>
<g>
	<line fill="none" stroke="#B3282E" stroke-width="3.5" x1="99.818" y1="94.441" x2="196.774" y2="94.441"/>
	<line fill="none" stroke="#14A9E7" stroke-width="3.5" x1="99.818" y1="86.962" x2="196.774" y2="86.962"/>
	<line fill="none" stroke="#6EAB51" stroke-width="3.5" x1="99.818" y1="79.483" x2="196.774" y2="79.483"/>
	<line fill="none" stroke="#C71186" stroke-width="3.5" x1="99.818" y1="72.003" x2="196.774" y2="72.004"/>
	<line fill="none" stroke="#6EAB51" stroke-width="3.5" x1="99.818" y1="64.525" x2="196.774" y2="64.525"/>
	<line fill="none" stroke="#B3282E" stroke-width="3.5" x1="99.818" y1="57.045" x2="196.774" y2="57.045"/>
	<line fill="none" stroke="#E4AF32" stroke-width="3.5" x1="99.818" y1="49.567" x2="196.774" y2="49.567"/>
	<line fill="none" stroke="#55B8E4" stroke-width="3.5" x1="99.818" y1="42.088" x2="196.774" y2="42.089"/>
</g>
<g>
	<line fill="none" stroke="#B3282E" stroke-width="3.5" x1="40.651" y1="195.199" x2="137.607" y2="195.199"/>
	<line fill="none" stroke="#14A9E7" stroke-width="3.5" x1="40.651" y1="187.72" x2="137.607" y2="187.72"/>
	<line fill="none" stroke="#6EAB51" stroke-width="3.5" x1="40.651" y1="180.241" x2="137.607" y2="180.241"/>
	<line fill="none" stroke="#C71186" stroke-width="3.5" x1="40.651" y1="172.762" x2="137.607" y2="172.762"/>
	<line fill="none" stroke="#6EAB51" stroke-width="3.5" x1="40.651" y1="165.283" x2="137.607" y2="165.283"/>
	<line fill="none" stroke="#B3282E" stroke-width="3.5" x1="40.651" y1="157.803" x2="137.607" y2="157.803"/>
	<line fill="none" stroke="#E4AF32" stroke-width="3.5" x1="40.651" y1="150.324" x2="137.607" y2="150.325"/>
	<line fill="none" stroke="#55B8E4" stroke-width="3.5" x1="40.651" y1="142.846" x2="137.607" y2="142.847"/>
</g>
</svg>
