<?xml version="1.0" encoding="utf-8"?>
<!-- Generator: Adobe Illustrator 17.0.0, SVG Export Plug-In . SVG Version: 6.00 Build 0)  -->
<!DOCTYPE svg PUBLIC "-//W3C//DTD SVG 1.1//EN" "http://www.w3.org/Graphics/SVG/1.1/DTD/svg11.dtd">
<svg version="1.1" id="Layer_1" xmlns="http://www.w3.org/2000/svg" xmlns:xlink="http://www.w3.org/1999/xlink" x="0px" y="0px"
	 width="457.477px" height="782.89px" viewBox="0 0 457.477 782.89" enable-background="new 0 0 457.477 782.89"
	 xml:space="preserve">
<polyline fill="#FFFFFF" points="25.963,540.219 41.393,540.219 41.393,561.824 118.805,561.824 118.805,581.243 41.393,581.243 
	41.393,602.846 25.963,602.846 "/>
<polyline fill="#FFFFFF" points="63.126,488.92 25.963,488.92 25.963,469.501 118.805,469.501 118.805,488.92 77.4,488.92 
	77.4,511.163 118.805,511.163 118.805,530.582 25.963,530.582 25.963,511.163 63.126,511.163 "/>
<polyline fill="#FFFFFF" points="118.805,449.617 25.963,449.617 25.963,398.954 40.237,398.954 40.237,430.199 63.126,430.199 
	63.126,401.396 77.4,401.396 77.4,430.199 104.533,430.199 104.533,397.924 118.805,397.924 "/>
<path fill="#FFFFFF" d="M174.522,553.083c-8.615-0.133-16.205,1.284-16.205,11.57c0,12.091,16.334,12.091,34.337,12.091
	c29.062,0,34.204-2.832,34.204-13.889c0-3.215-0.772-6.687-1.799-9.644h-20.576v10.544H190.21v-29.961h47.062
	c1.03,5.275,3.088,18.516,3.088,26.232c0,32.663-13.501,36.393-48.735,36.393c-23.403,0-47.192-1.157-47.192-32.919
	c0-19.029,10.674-30.863,30.09-29.706"/>
<path fill="#FFFFFF" d="M238.819,497.921v19.418h-92.844v-35.878c0-13.245,8.488-21.731,24.304-21.731
	c11.831,0,20.703,4.629,22.761,17.231h0.257c0.511-4.245,1.541-16.845,18.255-16.845c5.917,0,23.405-0.386,27.265-2.185v19.03
	c-5.663,2.571-11.96,2.056-18.003,2.056c-11.059,0-20.446-1.028-20.446,13.887v5.017 M186.094,497.921v-8.615
	c0-7.717-7.713-9.904-13.63-9.904c-8.872,0-12.215,3.73-12.215,9.904v8.615H186.094z"/>
<path fill="#FFFFFF" d="M238.821,451.192l-92.845-25.719v-25.592l92.845-25.204v20.446l-20.576,5.144v26.491l20.576,5.271
	 M163.85,413.77v0.258l40.123,8.874v-18.518L163.85,413.77z"/>
<path fill="#FFFFFF" d="M145.973,365.167v-32.406c0-25.46,16.979-30.22,45.909-30.22c14.272,0,46.937-2.186,46.937,30.994v31.631
	 M224.545,345.75v-9.385c0-11.831-8.872-14.147-32.148-14.147c-17.102,0-32.146,0-32.146,13.501v10.031H224.545z"/>
<path fill="#FFFFFF" d="M145.975,224.236h65.839c13.889,0,28.547,7.845,28.547,31.505c0,21.347-11.061,31.635-28.547,31.635h-65.839
	v-19.419h64.554c11.441,0,15.945-4.885,15.945-11.956c0-8.488-5.659-12.346-15.945-12.346h-64.554"/>
<path fill="#FFFFFF" d="M238.821,218.181l-92.845-25.717v-25.591l92.845-25.205v20.445l-20.576,5.146v26.49l20.576,5.272
	 M163.85,180.762v0.258l40.123,8.871v-18.516L163.85,180.762z"/>
<polyline fill="#FFFFFF" points="145.975,85.986 161.407,85.986 161.407,107.59 238.821,107.59 238.821,127.009 161.407,127.009 
	161.407,148.61 145.975,148.61 "/>
<polyline fill="#FFFFFF" points="238.819,76.987 145.973,76.987 145.973,26.324 160.251,26.324 160.251,57.572 183.137,57.572 
	183.137,28.767 197.41,28.767 197.41,57.572 224.545,57.572 224.545,25.294 238.819,25.294 "/>
<path fill="#FFFFFF" d="M312.409,596.416c-24.56,0-47.965,0-47.965-32.019c0-19.802,10.934-27.773,30.865-27.002v19.033
	c-12.348,0-16.977,2.181-16.977,7.969c0,10.93,10.292,12.346,34.077,12.346c23.791,0,34.078-1.416,34.078-12.346
	c0-9.003-11.576-8.613-18.903-8.874v-19.156c24.817,0,32.79,9.898,32.79,28.03C360.374,596.416,336.711,596.416,312.409,596.416"/>
<polyline fill="#FFFFFF" points="358.831,524.024 265.987,524.024 265.987,473.357 280.259,473.357 280.259,504.606 
	303.151,504.606 303.151,475.802 317.424,475.802 317.424,504.606 344.559,504.606 344.559,472.328 358.831,472.328 "/>
<polyline fill="#FFFFFF" points="358.831,459.603 265.987,459.603 265.987,433.369 330.282,408.681 330.282,408.423 
	265.987,408.423 265.987,390.291 358.831,390.291 358.831,415.881 290.933,441.213 290.933,441.471 358.831,441.471 "/>
<polyline fill="#FFFFFF" points="265.989,318.671 281.419,318.671 281.419,340.275 358.831,340.275 358.831,359.695 
	281.419,359.695 281.419,381.296 265.989,381.296 "/>
<polyline fill="#FFFFFF" points="358.831,309.674 265.987,309.674 265.987,259.011 280.259,259.011 280.259,290.257 
	303.151,290.257 303.151,261.452 317.424,261.452 317.424,290.257 344.559,290.257 344.559,257.981 358.831,257.981 "/>
<path fill="#FFFFFF" d="M358.829,226.351v19.418h-92.842v-35.875c0-13.246,8.487-21.733,24.304-21.733
	c11.829,0,20.703,4.629,22.759,17.232h0.257c0.511-4.244,1.545-16.847,18.261-16.847c5.915,0,23.403-0.385,27.26-2.186v19.033
	c-5.661,2.569-11.96,2.057-18.003,2.057c-11.059,0-20.446-1.03-20.446,13.885v5.017 M306.106,226.351v-8.615
	c0-7.717-7.713-9.903-13.63-9.903c-8.874,0-12.217,3.73-12.217,9.903v8.615H306.106z"/>
<path fill="#FFFFFF" d="M23.685,664.976c0-12.441,0.129-23.927,13.912-23.927c11.165,0,11.358,9.187,11.358,13.335h-4.084
	c0-5.105-1.405-9.889-7.274-9.889c-9.699,0-9.828,8.228-9.828,20.481s0.13,20.485,9.828,20.485c5.296,0,7.274-4.722,7.336-10.656
	h4.339c0,3.319-0.764,14.104-11.675,14.104C23.814,688.909,23.685,677.421,23.685,664.976"/>
<rect x="57.003" y="641.944" fill="#FFFFFF" width="4.082" height="46.069"/>
<polyline fill="#FFFFFF" points="77.55,645.389 66.319,645.389 66.319,641.944 92.863,641.944 92.863,645.389 81.632,645.389 
	81.632,688.013 77.55,688.013 "/>
<polyline fill="#FFFFFF" points="108.052,668.87 95.037,641.944 99.632,641.944 110.16,664.851 121.199,641.944 125.281,641.944 
	112.136,668.87 112.136,688.015 108.052,688.015 "/>
<path fill="#FFFFFF" d="M148.806,670.913c0,5.997,0,14.55,9.381,14.55c9.378,0,9.378-8.553,9.378-14.55v-28.969h4.084v31.965
	c0,11.87-6.254,14.998-13.462,14.998c-7.215,0-13.464-3.127-13.464-14.998v-31.965h4.082"/>
<polyline fill="#FFFFFF" points="183.24,688.013 183.24,641.944 189.494,641.944 208.187,682.396 208.318,682.271 208.318,641.944 
	212.402,641.944 212.402,688.013 206.212,688.013 187.451,647.109 187.324,647.242 187.324,688.013 "/>
<rect x="224.918" y="641.944" fill="#FFFFFF" width="4.083" height="46.069"/>
<polyline fill="#FFFFFF" points="262.828,641.944 266.786,641.944 254.025,688.013 248.92,688.013 236.093,641.944 240.435,641.944 
	251.342,683.166 251.473,683.166 "/>
<polyline fill="#FFFFFF" points="294.557,641.944 294.557,645.389 277.775,645.389 277.775,662.616 293.792,662.616 293.792,666.06 
	277.775,666.06 277.775,684.567 295.005,684.567 295.005,688.013 273.693,688.013 273.693,641.944 "/>
<path fill="#FFFFFF" d="M306.944,665.678v22.336h-4.086v-46.071h12.699c8.868,0,11.102,2.935,11.102,11.04
	c0,5.743-0.959,9.57-7.146,10.975v0.125c6.445,1.342,6.827,2.109,6.827,18.569c0,1.789,0.319,3.573,0.45,5.362h-3.892
	c-0.384-1.341-0.573-8.999-0.638-11.488c-0.065-1.976,1.274-10.848-7.596-10.848 M306.944,662.233h6.635
	c6.128,0,8.997-1.593,8.997-9.314c0-6.314-2.491-7.53-7.277-7.53h-8.355V662.233z"/>
<path fill="#FFFFFF" d="M354.554,653.623c-0.13-5.681-1.534-9.129-7.786-9.129c-4.978,0-8.103,1.726-8.103,7.15
	c0,6.827,3.446,7.021,8.68,10.783c5.676,4.086,11.482,5.297,11.482,14.233c0,8.226-4.213,12.249-12.251,12.249
	c-8.997,0-13.016-4.851-12.634-13.848h4.211c0,5.105,0.384,10.402,8.615,10.402c5.361,0,7.976-2.873,7.976-8.167
	c0-6.252-4.146-8.042-10.786-12.122c-8.93-5.491-9.314-8.236-9.376-12.829c-0.065-7.973,4.974-11.292,12.505-11.292
	c9.572,0,11.615,5.933,11.615,12.572"/>
<rect x="367.387" y="641.944" fill="#FFFFFF" width="4.082" height="46.069"/>
<polyline fill="#FFFFFF" points="388.494,645.389 377.265,645.389 377.265,641.944 403.806,641.944 403.806,645.389 
	392.576,645.389 392.576,688.013 388.494,688.013 "/>
<polyline fill="#FFFFFF" points="418.991,668.87 405.973,641.944 410.568,641.944 421.095,664.851 432.133,641.944 436.22,641.944 
	423.073,668.87 423.073,688.015 418.991,688.015 "/>
<path fill="#FFFFFF" d="M38.231,713.855c13.781,0,13.909,11.486,13.909,23.931c0,12.441-0.128,23.927-13.909,23.927
	S24.32,750.228,24.32,737.786C24.32,725.341,24.45,713.855,38.231,713.855 M38.231,758.269c9.699,0,9.825-8.232,9.825-20.483
	s-0.126-20.485-9.825-20.485s-9.828,8.234-9.828,20.485S28.532,758.269,38.231,758.269"/>
<polyline fill="#FFFFFF" points="60.318,714.751 79.779,714.751 79.779,718.195 64.4,718.195 64.4,735.422 78.693,735.422 
	78.693,738.869 64.4,738.869 64.4,760.818 60.318,760.818 "/>
<polyline fill="#FFFFFF" points="99.888,760.82 99.888,714.753 106.142,714.753 124.835,755.206 124.964,755.077 124.964,714.753 
	129.048,714.753 129.048,760.82 122.859,760.82 104.099,719.915 103.971,720.048 103.971,760.82 "/>
<polyline fill="#FFFFFF" points="160.898,714.751 160.898,718.195 144.115,718.195 144.115,735.422 160.131,735.422 
	160.131,738.869 144.115,738.869 144.115,757.374 161.342,757.374 161.342,760.818 140.032,760.818 140.032,714.751 "/>
<polyline fill="#FFFFFF" points="189.391,714.751 194.877,714.751 204.129,755.142 204.256,755.142 214.082,714.751 
	218.103,714.751 206.682,760.818 201.323,760.818 192.069,719.856 191.944,719.856 182.435,760.818 177.328,760.818 
	166.229,714.751 170.565,714.751 179.881,755.459 180.01,755.459 "/>
<polyline fill="#FFFFFF" points="246.109,741.677 233.093,714.751 237.686,714.751 248.215,737.656 259.255,714.751 
	263.338,714.751 250.189,741.677 250.189,760.82 246.109,760.82 "/>
<path fill="#FFFFFF" d="M281.119,713.855c13.781,0,13.908,11.486,13.908,23.931c0,12.441-0.127,23.927-13.908,23.927
	c-13.785,0-13.913-11.486-13.913-23.927C267.206,725.341,267.334,713.855,281.119,713.855 M281.119,758.269
	c9.699,0,9.824-8.232,9.824-20.483s-0.125-20.485-9.824-20.485c-9.701,0-9.827,8.234-9.827,20.485S271.418,758.269,281.119,758.269"
	/>
<path fill="#FFFFFF" d="M308.084,738.488v22.33H304v-46.067h12.697c8.87,0,11.102,2.933,11.102,11.038
	c0,5.743-0.957,9.57-7.144,10.975v0.129c6.441,1.34,6.825,2.107,6.825,18.567c0,1.789,0.319,3.575,0.45,5.359h-3.892
	c-0.384-1.338-0.575-8.995-0.64-11.484c-0.063-1.98,1.278-10.846-7.59-10.846 M308.084,735.042h6.633
	c6.128,0,8.997-1.595,8.997-9.316c0-6.314-2.489-7.529-7.271-7.529h-8.359V735.042z"/>
<polyline fill="#FFFFFF" points="339.1,760.82 339.1,714.753 343.188,714.753 343.188,735.874 343.313,735.874 359.65,714.753 
	364.559,714.753 347.333,736.256 365.074,760.82 359.967,760.82 343.313,737.214 343.188,737.214 343.188,760.82 "/>
</svg>
